<svg width="12" height="12" viewBox="0 0 12 12" fill="none" xmlns="http://www.w3.org/2000/svg">
<g clip-path="url(#clip0_39_127)">
<rect opacity="0.01" width="12" height="12" fill="white"/>
<path d="M5.99999 11.4C6.66275 11.4 7.2 10.8628 7.2 10.2C7.2 9.5373 6.66275 9.00004 5.99999 9.00004C5.33726 9.00004 4.8 9.5373 4.8 10.2C4.8 10.8628 5.33726 11.4 5.99999 11.4Z" fill="#FFA500"/>
<path fill-rule="evenodd" clip-rule="evenodd" d="M6.00019 9.29221C5.49882 9.29221 5.09238 9.69865 5.09238 10.2C5.09238 10.7014 5.49882 11.1078 6.00019 11.1078C6.50155 11.1078 6.90799 10.7014 6.90799 10.2C6.90799 9.69865 6.50155 9.29221 6.00019 9.29221ZM4.5 10.2C4.5 9.37161 5.17157 8.70004 6 8.70004C6.82842 8.70004 7.5 9.37161 7.5 10.2C7.5 11.0285 6.82842 11.7 6 11.7C5.17157 11.7 4.5 11.0285 4.5 10.2Z" fill="white"/>
<path fill-rule="evenodd" clip-rule="evenodd" d="M5.69991 6.58541H6.29991V9.58541H5.69991V6.58541Z" fill="#FFA500"/>
<path d="M6 6.90004C7.65684 6.90004 9 5.55691 9 3.90004C9 2.24319 7.65684 0.900037 6 0.900037C4.34315 0.900037 3 2.24319 3 3.90004C3 5.55691 4.34315 6.90004 6 6.90004Z" fill="#FFA500"/>
<path d="M6 4.80004C6.49704 4.80004 6.9 4.39707 6.9 3.90003C6.9 3.40298 6.49704 3.00004 6 3.00004C5.50294 3.00004 5.1 3.40298 5.1 3.90003C5.1 4.39707 5.50294 4.80004 6 4.80004Z" fill="white"/>
</g>
<defs>
<clipPath id="clip0_39_127">
<rect width="12" height="12" fill="white"/>
</clipPath>
</defs>
</svg>
