<svg width="16" height="16" viewBox="0 0 16 16" fill="none" xmlns="http://www.w3.org/2000/svg">
<g clip-path="url(#clip0_1_567)">
<path d="M8 8V8.00667" stroke="white" stroke-width="1.5" stroke-linecap="round" stroke-linejoin="round"/>
<path d="M9.88529 6.11469C10.3852 6.61476 10.6661 7.29291 10.6661 8.00002C10.6661 8.70712 10.3852 9.38528 9.88529 9.88535" stroke="white" stroke-width="1.5" stroke-linecap="round" stroke-linejoin="round"/>
<path d="M11.7713 4.22876C12.2665 4.72401 12.6594 5.31196 12.9275 5.95905C13.1955 6.60614 13.3335 7.29969 13.3335 8.00009C13.3335 8.7005 13.1955 9.39405 12.9275 10.0411C12.6594 10.6882 12.2665 11.2762 11.7713 11.7714" stroke="white" stroke-width="1.5" stroke-linecap="round" stroke-linejoin="round"/>
<path d="M6.11193 9.88535C5.61201 9.38528 5.33117 8.70712 5.33117 8.00002C5.33117 7.29291 5.61201 6.61476 6.11193 6.11469" stroke="white" stroke-width="1.5" stroke-linecap="round" stroke-linejoin="round"/>
<path d="M4.22452 11.7714C3.72925 11.2762 3.33637 10.6882 3.06833 10.0411C2.80029 9.39405 2.66233 8.7005 2.66233 8.00009C2.66233 7.29969 2.80029 6.60614 3.06833 5.95905C3.33637 5.31196 3.72925 4.72401 4.22452 4.22876" stroke="white" stroke-width="1.5" stroke-linecap="round" stroke-linejoin="round"/>
</g>
<defs>
<clipPath id="clip0_1_567">
<rect width="16" height="16" fill="white"/>
</clipPath>
</defs>
</svg>
